<svg xmlns="http://www.w3.org/2000/svg" xmlns:xlink="http://www.w3.org/1999/xlink" contentStyleType="text/css" height="1055px" preserveAspectRatio="none" style="width:1386px;height:1055px;background:#FFFFFF;" version="1.1" viewBox="0 0 1386 1055" width="1386px" zoomAndPan="magnify"><defs/><g><!--cluster WallGo (Python)--><g id="cluster_WallGo (Python)"><path d="M965.5,712.44 L1080.6123,712.44 A3.75,3.75 0 0 1 1083.1123,714.94 L1090.1123,734.9283 L1376.5,734.9283 A2.5,2.5 0 0 1 1379,737.4283 L1379,1045.92 A2.5,2.5 0 0 1 1376.5,1048.42 L965.5,1048.42 A2.5,2.5 0 0 1 963,1045.92 L963,714.94 A2.5,2.5 0 0 1 965.5,712.44 " fill="none" style="stroke:#000000;stroke-width:1.5;"/><line style="stroke:#000000;stroke-width:1.5;" x1="963" x2="1090.1123" y1="734.9283" y2="734.9283"/><text fill="#000000" font-family="sans-serif" font-size="14" font-weight="bold" lengthAdjust="spacing" textLength="114.1123" x="967" y="727.9752">WallGo (Python)</text></g><!--cluster WallGoManager--><g id="cluster_WallGoManager"><polygon fill="none" points="1077,931.93,1087,921.93,1265,921.93,1265,1014.42,1255,1024.42,1077,1024.42,1077,931.93" style="stroke:#181818;stroke-width:1.0;"/><line style="stroke:#181818;stroke-width:1.0;" x1="1255" x2="1265" y1="931.93" y2="921.93"/><line style="stroke:#181818;stroke-width:1.0;" x1="1077" x2="1255" y1="931.93" y2="931.93"/><line style="stroke:#181818;stroke-width:1.0;" x1="1255" x2="1255" y1="931.93" y2="1024.42"/><text fill="#000000" font-family="sans-serif" font-size="14" font-weight="bold" lengthAdjust="spacing" textLength="111.5352" x="1111.2324" y="948.4652">WallGoManager</text></g><!--cluster GenericModel--><g id="cluster_GenericModel"><polygon fill="none" points="995,773.44,1005,763.44,1347,763.44,1347,871.93,1337,881.93,995,881.93,995,773.44" style="stroke:#181818;stroke-width:1.0;"/><line style="stroke:#181818;stroke-width:1.0;" x1="1337" x2="1347" y1="773.44" y2="763.44"/><line style="stroke:#181818;stroke-width:1.0;" x1="995" x2="1337" y1="773.44" y2="773.44"/><line style="stroke:#181818;stroke-width:1.0;" x1="1337" x2="1337" y1="773.44" y2="881.93"/><text fill="#000000" font-family="sans-serif" font-size="14" font-weight="bold" lengthAdjust="spacing" textLength="98.0889" x="1117.9556" y="789.9752">GenericModel</text></g><!--cluster WallGoMatrix (Mathematica)--><g id="cluster_WallGoMatrix (Mathematica)"><path d="M8.5,6 L211.3857,6 A3.75,3.75 0 0 1 213.8857,8.5 L220.8857,28.4883 L410.5,28.4883 A2.5,2.5 0 0 1 413,30.9883 L413,460.97 A2.5,2.5 0 0 1 410.5,463.47 L8.5,463.47 A2.5,2.5 0 0 1 6,460.97 L6,8.5 A2.5,2.5 0 0 1 8.5,6 " fill="none" style="stroke:#000000;stroke-width:1.5;"/><line style="stroke:#000000;stroke-width:1.5;" x1="6" x2="220.8857" y1="28.4883" y2="28.4883"/><text fill="#000000" font-family="sans-serif" font-size="14" font-weight="bold" lengthAdjust="spacing" textLength="201.8857" x="10" y="21.5352">WallGoMatrix (Mathematica)</text></g><!--cluster DRalgo--><g id="cluster_DRalgo"><polygon fill="none" points="30,59,40,49,389,49,389,141.49,379,151.49,30,151.49,30,59" style="stroke:#181818;stroke-width:1.0;"/><line style="stroke:#181818;stroke-width:1.0;" x1="379" x2="389" y1="59" y2="49"/><line style="stroke:#181818;stroke-width:1.0;" x1="30" x2="379" y1="59" y2="59"/><line style="stroke:#181818;stroke-width:1.0;" x1="379" x2="379" y1="59" y2="151.49"/><text fill="#000000" font-family="sans-serif" font-size="14" font-weight="bold" lengthAdjust="spacing" textLength="51.7207" x="179.6396" y="75.5352">DRalgo</text></g><!--cluster matrixElements.m--><g id="cluster_matrixElements.m"><polygon fill="none" points="151,185.49,161,175.49,389,175.49,389,429.47,379,439.47,151,439.47,151,185.49" style="stroke:#181818;stroke-width:1.0;"/><line style="stroke:#181818;stroke-width:1.0;" x1="379" x2="389" y1="185.49" y2="175.49"/><line style="stroke:#181818;stroke-width:1.0;" x1="151" x2="379" y1="185.49" y2="185.49"/><line style="stroke:#181818;stroke-width:1.0;" x1="379" x2="379" y1="185.49" y2="439.47"/><text fill="#000000" font-family="sans-serif" font-size="14" font-weight="bold" lengthAdjust="spacing" textLength="129.4316" x="201.2842" y="202.0252">matrixElements.m</text></g><!--cluster WallGoCollision (Python & C++)--><g id="cluster_WallGoCollision (Python &amp; C++)"><path d="M439.5,277.98 L669.6885,277.98 A3.75,3.75 0 0 1 672.1885,280.48 L679.1885,300.4683 L936.5,300.4683 A2.5,2.5 0 0 1 939,302.9683 L939,895.43 A2.5,2.5 0 0 1 936.5,897.93 L439.5,897.93 A2.5,2.5 0 0 1 437,895.43 L437,280.48 A2.5,2.5 0 0 1 439.5,277.98 " fill="none" style="stroke:#000000;stroke-width:1.5;"/><line style="stroke:#000000;stroke-width:1.5;" x1="437" x2="679.1885" y1="300.4683" y2="300.4683"/><text fill="#000000" font-family="sans-serif" font-size="14" font-weight="bold" lengthAdjust="spacing" textLength="229.1885" x="441" y="293.5152">WallGoCollision (Python &amp; C++)</text></g><!--cluster CollisionTensorResult--><g id="cluster_CollisionTensorResult"><polygon fill="none" points="654,781.44,664,771.44,888,771.44,888,863.93,878,873.93,654,873.93,654,781.44" style="stroke:#181818;stroke-width:1.0;"/><line style="stroke:#181818;stroke-width:1.0;" x1="878" x2="888" y1="781.44" y2="771.44"/><line style="stroke:#181818;stroke-width:1.0;" x1="654" x2="878" y1="781.44" y2="781.44"/><line style="stroke:#181818;stroke-width:1.0;" x1="878" x2="878" y1="781.44" y2="873.93"/><text fill="#000000" font-family="sans-serif" font-size="14" font-weight="bold" lengthAdjust="spacing" textLength="158.6553" x="687.6724" y="797.9752">CollisionTensorResult</text></g><!--cluster CollisionTensor--><g id="cluster_CollisionTensor"><polygon fill="none" points="560,595.96,570,585.96,768,585.96,768,678.44,758,688.44,560,688.44,560,595.96" style="stroke:#181818;stroke-width:1.0;"/><line style="stroke:#181818;stroke-width:1.0;" x1="758" x2="768" y1="595.96" y2="585.96"/><line style="stroke:#181818;stroke-width:1.0;" x1="560" x2="758" y1="595.96" y2="595.96"/><line style="stroke:#181818;stroke-width:1.0;" x1="758" x2="758" y1="595.96" y2="688.44"/><text fill="#000000" font-family="sans-serif" font-size="14" font-weight="bold" lengthAdjust="spacing" textLength="113.4561" x="603.272" y="612.4952">CollisionTensor</text></g><!--cluster PhysicsModel--><g id="cluster_PhysicsModel"><polygon fill="none" points="469,338.98,479,328.98,907,328.98,907,543.96,897,553.96,469,553.96,469,338.98" style="stroke:#181818;stroke-width:1.0;"/><line style="stroke:#181818;stroke-width:1.0;" x1="897" x2="907" y1="338.98" y2="328.98"/><line style="stroke:#181818;stroke-width:1.0;" x1="469" x2="897" y1="338.98" y2="338.98"/><line style="stroke:#181818;stroke-width:1.0;" x1="897" x2="897" y1="338.98" y2="553.96"/><text fill="#000000" font-family="sans-serif" font-size="14" font-weight="bold" lengthAdjust="spacing" textLength="97.46" x="635.27" y="355.5152">PhysicsModel</text></g><!--entity solveWallVelocity--><g id="elem_solveWallVelocity"><rect fill="#A1C9F4" height="46.4883" rx="2.5" ry="2.5" style="stroke:#181818;stroke-width:0.5;" width="155.999" x="1093" y="961.93"/><rect fill="#A1C9F4" height="10" style="stroke:#181818;stroke-width:0.5;" width="15" x="1228.999" y="966.93"/><rect fill="#A1C9F4" height="2" style="stroke:#181818;stroke-width:0.5;" width="4" x="1226.999" y="968.93"/><rect fill="#A1C9F4" height="2" style="stroke:#181818;stroke-width:0.5;" width="4" x="1226.999" y="972.93"/><text fill="#000000" font-family="sans-serif" font-size="14" lengthAdjust="spacing" textLength="115.999" x="1108" y="995.4652">solveWallVelocity</text></g><!--entity EffectivePotential--><g id="elem_EffectivePotential"><rect fill="#FEFECE" height="46.4883" rx="2.5" ry="2.5" style="stroke:#181818;stroke-width:0.5;" width="156.3066" x="1018.85" y="811.44"/><rect fill="#FEFECE" height="10" style="stroke:#181818;stroke-width:0.5;" width="15" x="1155.1566" y="816.44"/><rect fill="#FEFECE" height="2" style="stroke:#181818;stroke-width:0.5;" width="4" x="1153.1566" y="818.44"/><rect fill="#FEFECE" height="2" style="stroke:#181818;stroke-width:0.5;" width="4" x="1153.1566" y="822.44"/><text fill="#000000" font-family="sans-serif" font-size="14" lengthAdjust="spacing" textLength="116.3066" x="1033.85" y="844.9752">EffectivePotential</text></g><!--entity Particle--><g id="elem_Particle"><rect fill="#FEFECE" height="46.4883" rx="2.5" ry="2.5" style="stroke:#181818;stroke-width:0.5;" width="89.499" x="1210.25" y="811.44"/><rect fill="#FEFECE" height="10" style="stroke:#181818;stroke-width:0.5;" width="15" x="1279.749" y="816.44"/><rect fill="#FEFECE" height="2" style="stroke:#181818;stroke-width:0.5;" width="4" x="1277.749" y="818.44"/><rect fill="#FEFECE" height="2" style="stroke:#181818;stroke-width:0.5;" width="4" x="1277.749" y="822.44"/><text fill="#000000" font-family="sans-serif" font-size="14" lengthAdjust="spacing" textLength="49.499" x="1225.25" y="844.9752">Particle</text></g><!--entity AllocateTensors--><g id="elem_AllocateTensors"><rect fill="#CFCFCF" height="46.4883" rx="2.5" ry="2.5" style="stroke:#181818;stroke-width:0.5;" width="148.2334" x="45.88" y="89"/><rect fill="#CFCFCF" height="10" style="stroke:#181818;stroke-width:0.5;" width="15" x="174.1134" y="94"/><rect fill="#CFCFCF" height="2" style="stroke:#181818;stroke-width:0.5;" width="4" x="172.1134" y="96"/><rect fill="#CFCFCF" height="2" style="stroke:#181818;stroke-width:0.5;" width="4" x="172.1134" y="100"/><text fill="#000000" font-family="sans-serif" font-size="14" lengthAdjust="spacing" textLength="108.2334" x="60.88" y="122.5352">AllocateTensors</text></g><!--entity CreateInvariant--><g id="elem_CreateInvariant"><rect fill="#CFCFCF" height="46.4883" rx="2.5" ry="2.5" style="stroke:#181818;stroke-width:0.5;" width="143.1133" x="229.44" y="89"/><rect fill="#CFCFCF" height="10" style="stroke:#181818;stroke-width:0.5;" width="15" x="352.5533" y="94"/><rect fill="#CFCFCF" height="2" style="stroke:#181818;stroke-width:0.5;" width="4" x="350.5533" y="96"/><rect fill="#CFCFCF" height="2" style="stroke:#181818;stroke-width:0.5;" width="4" x="350.5533" y="100"/><text fill="#000000" font-family="sans-serif" font-size="14" lengthAdjust="spacing" textLength="103.1133" x="244.44" y="122.5352">CreateInvariant</text></g><!--entity GenerateMatrixElements--><g id="elem_GenerateMatrixElements"><rect fill="#A1C9F4" height="46.4883" rx="2.5" ry="2.5" style="stroke:#181818;stroke-width:0.5;" width="205.6553" x="167.17" y="215.49"/><rect fill="#A1C9F4" height="10" style="stroke:#181818;stroke-width:0.5;" width="15" x="352.8253" y="220.49"/><rect fill="#A1C9F4" height="2" style="stroke:#181818;stroke-width:0.5;" width="4" x="350.8253" y="222.49"/><rect fill="#A1C9F4" height="2" style="stroke:#181818;stroke-width:0.5;" width="4" x="350.8253" y="226.49"/><text fill="#000000" font-family="sans-serif" font-size="14" lengthAdjust="spacing" textLength="165.6553" x="182.17" y="249.0252">GenerateMatrixElements</text></g><!--entity ExportMatrixElements--><g id="elem_ExportMatrixElements"><rect fill="#A1C9F4" height="46.4883" rx="2.5" ry="2.5" style="stroke:#181818;stroke-width:0.5;" width="189.3037" x="179.35" y="376.98"/><rect fill="#A1C9F4" height="10" style="stroke:#181818;stroke-width:0.5;" width="15" x="348.6537" y="381.98"/><rect fill="#A1C9F4" height="2" style="stroke:#181818;stroke-width:0.5;" width="4" x="346.6537" y="383.98"/><rect fill="#A1C9F4" height="2" style="stroke:#181818;stroke-width:0.5;" width="4" x="346.6537" y="387.98"/><text fill="#000000" font-family="sans-serif" font-size="14" lengthAdjust="spacing" textLength="149.3037" x="194.35" y="410.5152">ExportMatrixElements</text></g><!--entity writeToIndividualHDF5--><g id="elem_writeToIndividualHDF5"><rect fill="#A1C9F4" height="46.4883" rx="2.5" ry="2.5" style="stroke:#181818;stroke-width:0.5;" width="194.335" x="673.83" y="811.44"/><rect fill="#A1C9F4" height="10" style="stroke:#181818;stroke-width:0.5;" width="15" x="848.165" y="816.44"/><rect fill="#A1C9F4" height="2" style="stroke:#181818;stroke-width:0.5;" width="4" x="846.165" y="818.44"/><rect fill="#A1C9F4" height="2" style="stroke:#181818;stroke-width:0.5;" width="4" x="846.165" y="822.44"/><text fill="#000000" font-family="sans-serif" font-size="14" lengthAdjust="spacing" textLength="154.335" x="688.83" y="844.9752">writeToIndividualHDF5</text></g><!--entity computeIntegralsAll--><g id="elem_computeIntegralsAll"><rect fill="#A1C9F4" height="46.4883" rx="2.5" ry="2.5" style="stroke:#181818;stroke-width:0.5;" width="176.2607" x="575.87" y="625.96"/><rect fill="#A1C9F4" height="10" style="stroke:#181818;stroke-width:0.5;" width="15" x="732.1307" y="630.96"/><rect fill="#A1C9F4" height="2" style="stroke:#181818;stroke-width:0.5;" width="4" x="730.1307" y="632.96"/><rect fill="#A1C9F4" height="2" style="stroke:#181818;stroke-width:0.5;" width="4" x="730.1307" y="636.96"/><text fill="#000000" font-family="sans-serif" font-size="14" lengthAdjust="spacing" textLength="136.2607" x="590.87" y="659.4952">computeIntegralsAll</text></g><!--entity defineParticleSpecies--><g id="elem_defineParticleSpecies"><rect fill="#A1C9F4" height="46.4883" rx="2.5" ry="2.5" style="stroke:#181818;stroke-width:0.5;" width="182.0986" x="492.95" y="376.98"/><rect fill="#A1C9F4" height="10" style="stroke:#181818;stroke-width:0.5;" width="15" x="655.0486" y="381.98"/><rect fill="#A1C9F4" height="2" style="stroke:#181818;stroke-width:0.5;" width="4" x="653.0486" y="383.98"/><rect fill="#A1C9F4" height="2" style="stroke:#181818;stroke-width:0.5;" width="4" x="653.0486" y="387.98"/><text fill="#000000" font-family="sans-serif" font-size="14" lengthAdjust="spacing" textLength="142.0986" x="507.95" y="410.5152">defineParticleSpecies</text></g><!--entity defineParameter--><g id="elem_defineParameter"><rect fill="#A1C9F4" height="46.4883" rx="2.5" ry="2.5" style="stroke:#181818;stroke-width:0.5;" width="150.8584" x="709.57" y="376.98"/><rect fill="#A1C9F4" height="10" style="stroke:#181818;stroke-width:0.5;" width="15" x="840.4284" y="381.98"/><rect fill="#A1C9F4" height="2" style="stroke:#181818;stroke-width:0.5;" width="4" x="838.4284" y="383.98"/><rect fill="#A1C9F4" height="2" style="stroke:#181818;stroke-width:0.5;" width="4" x="838.4284" y="387.98"/><text fill="#000000" font-family="sans-serif" font-size="14" lengthAdjust="spacing" textLength="110.8584" x="724.57" y="410.5152">defineParameter</text></g><!--entity loadMatrixElements--><g id="elem_loadMatrixElements"><rect fill="#A1C9F4" height="46.4883" rx="2.5" ry="2.5" style="stroke:#181818;stroke-width:0.5;" width="173.9434" x="524.03" y="483.47"/><rect fill="#A1C9F4" height="10" style="stroke:#181818;stroke-width:0.5;" width="15" x="677.9734" y="488.47"/><rect fill="#A1C9F4" height="2" style="stroke:#181818;stroke-width:0.5;" width="4" x="675.9734" y="490.47"/><rect fill="#A1C9F4" height="2" style="stroke:#181818;stroke-width:0.5;" width="4" x="675.9734" y="494.47"/><text fill="#000000" font-family="sans-serif" font-size="14" lengthAdjust="spacing" textLength="133.9434" x="539.03" y="517.0052">loadMatrixElements</text></g><!--link GenericModel to solveWallVelocity--><g id="link_GenericModel_solveWallVelocity"><path d="M1328.7298,882.1846 C1328.6907,882.2951 1328.6513,882.4055 1328.6118,882.5159 C1328.4538,882.9576 1328.2929,883.3988 1328.1288,883.8393 C1327.8008,884.7204 1327.4607,885.5988 1327.108,886.4733 C1324.2863,893.4688 1320.66,900.205 1316,905.93 C1295.68,930.89 1270.692,946.5589 1242.922,959.0489 " fill="none" id="GenericModel-to-solveWallVelocity" style="stroke:#181818;stroke-width:1.0;"/><polygon fill="#181818" points="1237.45,961.51,1247.2988,961.4663,1242.01,959.4591,1244.0173,954.1703,1237.45,961.51" style="stroke:#181818;stroke-width:1.0;"/></g><!--link AllocateTensors to GenerateMatrixElements--><g id="link_AllocateTensors_GenerateMatrixElements"><path d="M147.16,135.79 C174.26,158.28 211.0531,188.8079 238.1731,211.3179 " fill="none" id="AllocateTensors-to-GenerateMatrixElements" style="stroke:#181818;stroke-width:1.0;"/><polygon fill="#181818" points="242.79,215.15,238.4194,206.324,238.9426,211.9566,233.31,212.4798,242.79,215.15" style="stroke:#181818;stroke-width:1.0;"/></g><!--link CreateInvariant to GenerateMatrixElements--><g id="link_CreateInvariant_GenerateMatrixElements"><path d="M295.39,135.79 C289.77,158.35 282.6316,187.0382 277.0216,209.5382 " fill="none" id="CreateInvariant-to-GenerateMatrixElements" style="stroke:#181818;stroke-width:1.0;"/><polygon fill="#181818" points="275.57,215.36,281.6285,207.5951,276.7796,210.5085,273.8662,205.6596,275.57,215.36" style="stroke:#181818;stroke-width:1.0;"/></g><!--link GenerateMatrixElements to ExportMatrixElements--><g id="link_GenerateMatrixElements_ExportMatrixElements"><path d="M270.56,262.25 C271.32,292.56 272.52,340.1819 273.28,370.5719 " fill="none" id="GenerateMatrixElements-to-ExportMatrixElements" style="stroke:#181818;stroke-width:1.0;"/><polygon fill="#181818" points="273.43,376.57,277.2037,367.4728,273.305,371.5716,269.2062,367.6728,273.43,376.57" style="stroke:#181818;stroke-width:1.0;"/></g><!--link defineParticleSpecies to loadMatrixElements--><g id="link_defineParticleSpecies_loadMatrixElements"><path d="M589.86,423.9 C594.39,441.42 599.1303,459.7604 603.6503,477.2704 " fill="none" id="defineParticleSpecies-to-loadMatrixElements" style="stroke:#181818;stroke-width:1.0;"/><polygon fill="#181818" points="605.15,483.08,606.7735,473.3659,603.9003,478.2387,599.0275,475.3654,605.15,483.08" style="stroke:#181818;stroke-width:1.0;"/></g><!--link defineParameter to loadMatrixElements--><g id="link_defineParameter_loadMatrixElements"><path d="M759.3,423.72 C741.51,438.55 716.84,457.7 693,471.47 C685.92,475.56 683.7061,476.9021 676.0061,480.4621 " fill="none" id="defineParameter-to-loadMatrixElements" style="stroke:#181818;stroke-width:1.0;"/><polygon fill="#181818" points="670.56,482.98,680.4078,482.8338,675.0984,480.8817,677.0505,475.5724,670.56,482.98" style="stroke:#181818;stroke-width:1.0;"/></g><!--link loadMatrixElements to computeIntegralsAll--><g id="link_loadMatrixElements_computeIntegralsAll"><path d="M619.52,530.28 C629.41,556.5 643.5003,593.8769 653.3903,620.0669 " fill="none" id="loadMatrixElements-to-computeIntegralsAll" style="stroke:#181818;stroke-width:1.0;"/><polygon fill="#181818" points="655.51,625.68,656.0726,615.8472,653.7436,621.0024,648.5884,618.6734,655.51,625.68" style="stroke:#181818;stroke-width:1.0;"/></g><!--link computeIntegralsAll to writeToIndividualHDF5--><g id="link_computeIntegralsAll_writeToIndividualHDF5"><path d="M677.12,672.7 C697.66,707.91 734.1478,770.4867 754.7478,805.8167 " fill="none" id="computeIntegralsAll-to-writeToIndividualHDF5" style="stroke:#181818;stroke-width:1.0;"/><polygon fill="#181818" points="757.77,811,756.6922,801.2103,755.2515,806.6806,749.7812,805.2399,757.77,811" style="stroke:#181818;stroke-width:1.0;"/></g><!--link ExportMatrixElements to loadMatrixElements--><g id="link_ExportMatrixElements_loadMatrixElements"><path d="M335.31,423.92 C375.36,438.39 428.96,457.04 477,471.47 C492.06,475.99 502.3875,478.9134 518.0475,483.0334 " fill="none" id="ExportMatrixElements-to-loadMatrixElements" style="stroke:#181818;stroke-width:1.0;"/><polygon fill="#181818" points="523.85,484.56,516.1639,478.4017,519.0145,483.2878,514.1285,486.1385,523.85,484.56" style="stroke:#181818;stroke-width:1.0;"/></g><!--link writeToIndividualHDF5 to solveWallVelocity--><g id="link_writeToIndividualHDF5_solveWallVelocity"><path d="M832.19,858.4 C907.47,886.35 1028.9149,931.4323 1104.1949,959.3723 " fill="none" id="writeToIndividualHDF5-to-solveWallVelocity" style="stroke:#181818;stroke-width:1.0;"/><polygon fill="#181818" points="1109.82,961.46,1102.7742,954.5784,1105.1324,959.7202,1099.9906,962.0784,1109.82,961.46" style="stroke:#181818;stroke-width:1.0;"/></g><!--reverse link PhysicsModel to GenericModel--><g id="link_PhysicsModel_GenericModel"><path d="M912.826,407.3092 C913.7779,407.6839 910.5835,406.4399 911.6421,406.8616 C913.7593,407.7051 916.0868,408.6425 918.6119,409.6733 C928.7124,413.7964 941.9745,419.4138 957.5834,426.4919 C988.8013,440.6481 1029.4063,460.6475 1072.88,486.2225 C1159.8275,537.3725 1258.25,610.825 1316,704.44 C1323.1,715.9525 1328.0344,729.0956 1331.4261,742.4894 C1333.122,749.1863 1334.4321,755.9458 1335.4346,762.5955 C1335.4659,762.8033 1335.4969,763.011 1335.5276,763.2185 " fill="none" id="PhysicsModel-backto-GenericModel" style="stroke:#181818;stroke-width:1.0;stroke-dasharray:7.0,7.0;"/><polygon fill="#181818" points="907.2387,405.1225,914.1619,412.1274,911.8948,406.9447,917.0775,404.6776,907.2387,405.1225" style="stroke:#181818;stroke-width:1.0;"/></g><!--SRC=[XLHDQm8n4BtlhmWLYaKg5Dg3K0f5- -5145lQWtYOPYSQEfiiIRHAwNzlTgtMQAAxXsLtthnvysOszbEg4WmKZEkYr0gLUt4hGjOGeYCw7rbM0l-4ARApTo1wqgmvNBcPLXTdx3jZ_b8wtmO7e3pKR4BLDRQQ5bY5tv0qbsurOGsuuXrnNMD-TaYUKA6HVE1VAE1u40AvamiSQkSLIY1F8j1_n7_G48oJd30ChVd7kzGJTdbv5nEM_HoqEm1dv98r_NE61VW2iDTvRmGqrO7SU_A4uF0LbTN6Ua5SLFS_eclGn_jg0KQ2SY5YBNcdH56BU20iVFEsNGJ5wiuysI00XIQlJLoMshXZi3-l3kJNTYNgPF5-JgUaTDUPKQrPP3vTJIIjr6gpb-oSTLkjlHbjKUkMHcZdv08Nlupq3Uk-okL2vdEWvzxZJNfJzmW3gkf7cbTcE9mQ8EljJ1CDPoihkJrS-Ho5LBZPwPSIkSJOLBSuAD2XYI18GvwQ-ibwzJGY34S474tvMx6OfZelPbwMjhNEYS-kMfR4pYSLfjOWTLwCTyStORVjzjv9a_q2]--></g></svg>