<?xml version="1.0" encoding="UTF-8" standalone="no"?>
<svg
   width="466pt"
   height="328pt"
   viewBox="0 0 466 328"
   version="1.1"
   id="svg9"
   sodipodi:docname="logo.wallgo-eps-converted-to.pdf"
   inkscape:version="1.3.2 (091e20e, 2023-11-25)"
   xmlns:inkscape="http://www.inkscape.org/namespaces/inkscape"
   xmlns:sodipodi="http://sodipodi.sourceforge.net/DTD/sodipodi-0.dtd"
   xmlns="http://www.w3.org/2000/svg"
   xmlns:svg="http://www.w3.org/2000/svg">
  <defs
     id="defs9" />
  <sodipodi:namedview
     id="namedview9"
     pagecolor="#ffffff"
     bordercolor="#000000"
     borderopacity="0.25"
     inkscape:showpageshadow="2"
     inkscape:pageopacity="0.0"
     inkscape:pagecheckerboard="0"
     inkscape:deskcolor="#d1d1d1"
     inkscape:document-units="pt"
     inkscape:zoom="0.53963415"
     inkscape:cx="311.32203"
     inkscape:cy="218.66667"
     inkscape:window-width="1192"
     inkscape:window-height="677"
     inkscape:window-x="262"
     inkscape:window-y="1350"
     inkscape:window-maximized="0"
     inkscape:current-layer="svg9" />
  <path
     fill-rule="nonzero"
     fill="rgb(0%, 0%, 0%)"
     fill-opacity="1"
     d="M 140.589844 128.269531 L 162.171875 128.269531 L 196.296875 222.664062 L 167.972656 222.664062 L 165.003906 214.171875 L 137.757812 214.171875 L 134.789062 222.664062 L 106.464844 222.664062 Z M 157.453125 193.367188 L 151.382812 176.8125 L 145.3125 193.367188 Z M 126.5625 211.339844 L 129.125 204.265625 L 173.636719 204.265625 L 176.199219 211.339844 L 179.976562 211.339844 L 153.945312 139.589844 L 148.820312 139.589844 L 122.785156 211.339844 Z M 151.382812 142.988281 L 172.421875 200.867188 L 130.339844 200.867188 Z M 151.382812 142.988281 "
     id="path1" />
  <path
     fill-rule="nonzero"
     fill="rgb(0%, 0%, 0%)"
     fill-opacity="1"
     d="M 336.582031 160.394531 C 334.960938 158.886719 332.9375 157.753906 330.511719 157 C 328.082031 156.148438 325.699219 155.722656 323.359375 155.722656 C 320.753906 155.722656 318.371094 156.242188 316.210938 157.28125 C 314.054688 158.226562 312.164062 159.59375 310.546875 161.386719 C 309.019531 163.082031 307.804688 165.160156 306.90625 167.613281 C 306.007812 170.066406 305.554688 172.707031 305.554688 175.539062 C 305.554688 178.367188 306.050781 181.007812 307.039062 183.460938 C 308.027344 185.914062 309.378906 188.039062 311.085938 189.832031 C 312.796875 191.527344 314.773438 192.898438 317.023438 193.933594 C 319.359375 194.878906 321.832031 195.351562 324.441406 195.351562 C 327.496094 195.351562 330.285156 194.6875 332.804688 193.367188 C 335.320312 191.953125 337.480469 190.066406 339.277344 187.707031 L 331.183594 187.707031 L 331.183594 167.894531 L 365.851562 167.894531 L 365.851562 199.3125 C 363.78125 203.179688 361.308594 206.71875 358.433594 209.925781 C 355.554688 213.039062 352.316406 215.730469 348.71875 217.992188 C 345.214844 220.257812 341.390625 222.003906 337.253906 223.230469 C 333.117188 224.457031 328.847656 225.070312 324.441406 225.070312 C 317.964844 225.070312 311.851562 223.796875 306.097656 221.246094 C 300.339844 218.699219 295.304688 215.210938 290.988281 210.773438 C 286.761719 206.339844 283.390625 201.105469 280.871094 195.066406 C 278.445312 189.027344 277.230469 182.519531 277.230469 175.539062 C 277.230469 168.746094 278.398438 162.328125 280.738281 156.289062 C 283.074219 150.253906 286.265625 145.015625 290.3125 140.582031 C 294.449219 136.054688 299.304688 132.515625 304.882812 129.96875 C 310.546875 127.328125 316.617188 126.003906 323.089844 126.003906 C 328.128906 126.003906 332.488281 126.523438 336.175781 127.5625 C 339.863281 128.601562 342.964844 129.78125 345.484375 131.101562 C 348.449219 132.609375 350.921875 134.261719 352.902344 136.054688 Z M 337.929688 142.140625 C 336.761719 141.574219 335.457031 141.101562 334.015625 140.722656 C 332.757812 140.347656 331.273438 140.015625 329.566406 139.734375 C 327.859375 139.449219 325.96875 139.308594 323.902344 139.308594 C 319.136719 139.308594 314.683594 140.203125 310.546875 141.996094 C 306.410156 143.789062 302.8125 146.289062 299.757812 149.496094 C 296.699219 152.609375 294.269531 156.386719 292.472656 160.820312 C 290.765625 165.253906 289.910156 170.160156 289.910156 175.539062 C 289.910156 180.914062 290.808594 185.820312 292.605469 190.253906 C 294.40625 194.6875 296.878906 198.511719 300.027344 201.71875 C 303.171875 204.832031 306.816406 207.285156 310.953125 209.078125 C 315.179688 210.871094 319.675781 211.765625 324.441406 211.765625 C 330.644531 211.765625 336.265625 210.257812 341.300781 207.238281 C 346.335938 204.125 350.429688 200.019531 353.574219 194.925781 L 353.574219 176.386719 L 339.277344 176.386719 L 339.277344 179.78125 L 350.070312 179.78125 L 350.070312 193.933594 C 347.28125 198.273438 343.640625 201.71875 339.144531 204.265625 C 334.738281 206.8125 329.835938 208.085938 324.441406 208.085938 C 320.125 208.085938 316.078125 207.332031 312.300781 205.820312 C 308.613281 204.21875 305.332031 202 302.453125 199.171875 C 299.667969 196.246094 297.464844 192.800781 295.84375 188.839844 C 294.226562 184.78125 293.417969 180.347656 293.417969 175.539062 C 293.417969 170.726562 294.179688 166.339844 295.710938 162.375 C 297.328125 158.320312 299.488281 154.875 302.183594 152.046875 C 304.972656 149.121094 308.210938 146.902344 311.894531 145.394531 C 315.582031 143.789062 319.585938 142.988281 323.902344 142.988281 C 325.519531 142.988281 327.046875 143.128906 328.488281 143.414062 C 329.925781 143.695312 331.183594 143.976562 332.265625 144.261719 C 333.523438 144.640625 334.691406 145.015625 335.769531 145.394531 Z M 337.929688 142.140625 "
     id="path2" />
  <path
     fill-rule="nonzero"
     fill="rgb(81.25%, 0%, 38.818359%)"
     fill-opacity="1"
     d="M 371.246094 175.539062 C 371.246094 168.746094 372.460938 162.328125 374.886719 156.289062 C 377.40625 150.253906 380.777344 145.015625 385.003906 140.582031 C 389.320312 136.054688 394.355469 132.515625 400.113281 129.96875 C 405.867188 127.328125 411.980469 126.003906 418.457031 126.003906 C 424.929688 126.003906 431.046875 127.328125 436.800781 129.96875 C 442.554688 132.515625 447.546875 136.054688 451.773438 140.582031 C 456.089844 145.015625 459.460938 150.253906 461.890625 156.289062 C 464.40625 162.328125 465.667969 168.746094 465.667969 175.539062 C 465.667969 182.332031 464.40625 188.746094 461.890625 194.785156 C 459.460938 200.820312 456.089844 206.105469 451.773438 210.632812 C 447.546875 215.066406 442.554688 218.605469 436.800781 221.246094 C 431.046875 223.796875 424.929688 225.070312 418.457031 225.070312 C 411.980469 225.070312 405.867188 223.796875 400.113281 221.246094 C 394.355469 218.605469 389.320312 215.066406 385.003906 210.632812 C 380.777344 206.105469 377.40625 200.820312 374.886719 194.785156 C 372.460938 188.746094 371.246094 182.332031 371.246094 175.539062 Z M 383.925781 175.539062 C 383.925781 180.539062 384.824219 185.253906 386.621094 189.6875 C 388.421875 194.027344 390.894531 197.851562 394.042969 201.152344 C 397.1875 204.453125 400.832031 207.046875 404.96875 208.9375 C 409.195312 210.824219 413.691406 211.765625 418.457031 211.765625 C 423.222656 211.765625 427.671875 210.824219 431.808594 208.9375 C 436.035156 207.046875 439.722656 204.453125 442.871094 201.152344 C 446.019531 197.851562 448.492188 194.027344 450.289062 189.6875 C 452.085938 185.253906 452.988281 180.539062 452.988281 175.539062 C 452.988281 170.535156 452.085938 165.867188 450.289062 161.527344 C 448.492188 157.09375 446.019531 153.222656 442.871094 149.921875 C 439.722656 146.621094 436.035156 144.027344 431.808594 142.140625 C 427.671875 140.25 423.222656 139.308594 418.457031 139.308594 C 413.691406 139.308594 409.195312 140.25 404.96875 142.140625 C 400.832031 144.027344 397.1875 146.621094 394.042969 149.921875 C 390.894531 153.222656 388.421875 157.09375 386.621094 161.527344 C 384.824219 165.867188 383.925781 170.535156 383.925781 175.539062 Z M 399.570312 175.539062 C 399.570312 178.273438 400.066406 180.867188 401.054688 183.320312 C 402.046875 185.679688 403.394531 187.753906 405.101562 189.546875 C 406.8125 191.339844 408.789062 192.753906 411.039062 193.792969 C 413.375 194.832031 415.847656 195.351562 418.457031 195.351562 C 421.0625 195.351562 423.492188 194.832031 425.738281 193.792969 C 428.078125 192.753906 430.101562 191.339844 431.808594 189.546875 C 433.519531 187.753906 434.867188 185.679688 435.855469 183.320312 C 436.84375 180.867188 437.339844 178.273438 437.339844 175.539062 C 437.339844 172.800781 436.84375 170.253906 435.855469 167.894531 C 434.867188 165.441406 433.519531 163.320312 431.808594 161.527344 C 430.101562 159.734375 428.078125 158.320312 425.738281 157.28125 C 423.492188 156.242188 421.0625 155.722656 418.457031 155.722656 C 415.847656 155.722656 413.375 156.242188 411.039062 157.28125 C 408.789062 158.320312 406.8125 159.734375 405.101562 161.527344 C 403.394531 163.320312 402.046875 165.441406 401.054688 167.894531 C 400.066406 170.253906 399.570312 172.800781 399.570312 175.539062 Z M 418.457031 208.085938 C 414.140625 208.085938 410.09375 207.238281 406.316406 205.539062 C 402.628906 203.839844 399.347656 201.53125 396.46875 198.605469 C 393.683594 195.585938 391.480469 192.140625 389.859375 188.273438 C 388.242188 184.3125 387.433594 180.066406 387.433594 175.539062 C 387.433594 171.007812 388.242188 166.808594 389.859375 162.941406 C 391.480469 158.980469 393.683594 155.535156 396.46875 152.609375 C 399.347656 149.59375 402.628906 147.234375 406.316406 145.535156 C 410.09375 143.835938 414.140625 142.988281 418.457031 142.988281 C 422.773438 142.988281 426.773438 143.835938 430.460938 145.535156 C 434.238281 147.234375 437.519531 149.59375 440.308594 152.609375 C 443.183594 155.535156 445.433594 158.980469 447.050781 162.941406 C 448.671875 166.808594 449.480469 171.007812 449.480469 175.539062 C 449.480469 180.066406 448.671875 184.3125 447.050781 188.273438 C 445.433594 192.140625 443.183594 195.585938 440.308594 198.605469 C 437.519531 201.53125 434.238281 203.839844 430.460938 205.539062 C 426.773438 207.238281 422.773438 208.085938 418.457031 208.085938 Z M 418.457031 208.085938 "
     id="path3" />
  <path
     fill="none"
     stroke-width="141.732"
     stroke-linecap="round"
     stroke-linejoin="round"
     stroke="rgb(81.25%, 0%, 38.818359%)"
     stroke-opacity="1"
     stroke-miterlimit="4"
     d="M 2844.375 72.304688 C 2346.25 434.570312 2046.679688 1008.984375 2034.882812 1624.453125 C 2023.085938 2239.882812 2300.429688 2825.351562 2784.296875 3206.40625 "
     transform="matrix(0.1, 0, 0, -0.1, 0, 328)"
     id="path4" />
  <path
     fill="none"
     stroke-width="141.732"
     stroke-linecap="round"
     stroke-linejoin="round"
     stroke="rgb(81.25%, 0%, 38.818359%)"
     stroke-opacity="1"
     stroke-miterlimit="4"
     d="M 3057.929688 537.773438 C 2733.671875 774.296875 2538.671875 1149.335938 2530.976562 1551.132812 C 2523.320312 1952.929688 2703.828125 2335.15625 3018.828125 2583.945312 "
     transform="matrix(0.1, 0, 0, -0.1, 0, 328)"
     id="path5" />
  <path
     fill="none"
     stroke-width="141.732"
     stroke-linecap="round"
     stroke-linejoin="round"
     stroke="rgb(81.25%, 0%, 38.818359%)"
     stroke-opacity="1"
     stroke-miterlimit="4"
     d="M 1110.46875 1845.234375 C 1079.53125 1579.257812 979.804688 1331.601562 825.390625 1137.1875 "
     transform="matrix(0.1, 0, 0, -0.1, 0, 328)"
     id="path6" />
  <path
     fill="none"
     stroke-width="141.732"
     stroke-linecap="round"
     stroke-linejoin="round"
     stroke="rgb(81.25%, 0%, 38.818359%)"
     stroke-opacity="1"
     stroke-miterlimit="4"
     d="M 593.28125 1714.492188 C 548.710938 1497.34375 457.578125 1297.929688 328.984375 1136.015625 "
     transform="matrix(0.1, 0, 0, -0.1, 0, 328)"
     id="path7" />
  <path
     fill="none"
     stroke-width="141.732"
     stroke-linecap="round"
     stroke-linejoin="round"
     stroke="rgb(81.25%, 0%, 38.818359%)"
     stroke-opacity="1"
     stroke-miterlimit="4"
     d="M 808.515625 1116.796875 C 579.179688 1470.117188 537.539062 1913.710938 697.070312 2303.671875 "
     transform="matrix(0.1, 0, 0, -0.1, 0, 328)"
     id="path8" />
  <path
     fill="none"
     stroke-width="141.732"
     stroke-linecap="round"
     stroke-linejoin="round"
     stroke="rgb(81.25%, 0%, 38.818359%)"
     stroke-opacity="1"
     stroke-miterlimit="4"
     d="M 517.8125 870.117188 C 11.289062 1305.820312 -76.484375 2058.164062 316.054688 2599.179688 "
     transform="matrix(0.1, 0, 0, -0.1, 0, 328)"
     id="path9" />
</svg>
